<svg width="428" height="114" viewBox="0 0 428 114" fill="none" xmlns="http://www.w3.org/2000/svg">
<g filter="url(#filter0_b_184_76)">
<rect y="113.377" width="113.377" height="427.068" transform="rotate(-90 0 113.377)" fill="#151515" fill-opacity="0.5"/>
</g>
<path d="M145.308 12.8029L137.778 22.3129L146.088 32.4529H142.818L135.138 22.8229V32.4529H132.588V12.8029H135.138V22.2829L142.458 12.8029H145.308ZM167.64 12.8029L173.67 32.4529H170.91L169.62 27.8929H162.39L161.1 32.4529H158.49L164.49 12.8029H167.64ZM166.02 15.1429L163.02 25.6129H168.99L166.02 15.1429ZM190.867 12.8029V32.4529H188.317V12.8029H190.867ZM212.297 12.4429C213.377 12.4429 214.787 12.6029 216.527 12.9229L216.467 15.1729C214.827 14.8529 213.437 14.6929 212.297 14.6929C211.137 14.6929 210.297 14.9229 209.777 15.3829C209.277 15.8429 209.027 16.5429 209.027 17.4829V18.2629C209.027 18.7629 209.087 19.1629 209.207 19.4629C209.347 19.7429 209.587 19.9929 209.927 20.2129C210.267 20.4129 210.777 20.6229 211.457 20.8429L214.247 21.7729C215.587 22.2329 216.527 22.8429 217.067 23.6029C217.627 24.3629 217.907 25.4729 217.907 26.9329V27.5029C217.907 29.2829 217.387 30.6129 216.347 31.4929C215.327 32.3729 213.647 32.8129 211.307 32.8129C210.167 32.8129 208.707 32.6129 206.927 32.2129L206.987 29.9029C208.647 30.3029 210.067 30.5029 211.247 30.5029C212.747 30.5029 213.807 30.2829 214.427 29.8429C215.047 29.3829 215.357 28.6729 215.357 27.7129V26.7229C215.357 26.0229 215.197 25.4929 214.877 25.1329C214.577 24.7529 214.037 24.4329 213.257 24.1729L210.167 23.1529C208.787 22.6929 207.827 22.1029 207.287 21.3829C206.747 20.6429 206.477 19.5329 206.477 18.0529V17.7229C206.477 15.9829 206.937 14.6729 207.857 13.7929C208.797 12.8929 210.277 12.4429 212.297 12.4429ZM243.556 12.8029V15.1129H235.756V21.3229H242.956V23.6029H235.756V30.1429H243.556V32.4529H233.206V12.8029H243.556ZM264.986 12.4429C267.346 12.4429 269.086 12.9029 270.206 13.8229C271.326 14.7429 271.886 16.0329 271.886 17.6929V18.4429C271.886 19.6029 271.566 20.6329 270.926 21.5329C270.286 22.4129 269.366 23.0329 268.166 23.3929L273.266 32.4529H270.416L265.646 23.9329C265.486 23.9529 265.166 23.9629 264.686 23.9629C263.886 23.9629 263.096 23.9329 262.316 23.8729V32.4529H259.766V12.5629C262.006 12.4829 263.746 12.4429 264.986 12.4429ZM264.926 14.6029C264.266 14.6029 263.396 14.6229 262.316 14.6629V21.7429C263.396 21.8429 264.296 21.8929 265.016 21.8929C267.896 21.8929 269.336 20.7229 269.336 18.3829V17.7829C269.336 16.7029 268.986 15.9029 268.286 15.3829C267.586 14.8629 266.466 14.6029 264.926 14.6029Z" fill="#FBC400"/>
<path d="M142.938 45.8029V48.1129H135.138V54.3229H141.018V56.6029H135.138V65.4529H132.588V45.8029H142.938ZM163.607 45.4429C165.967 45.4429 167.707 45.9029 168.827 46.8229C169.947 47.7429 170.507 49.0329 170.507 50.6929V51.4429C170.507 52.6029 170.187 53.6329 169.547 54.5329C168.907 55.4129 167.987 56.0329 166.787 56.3929L171.887 65.4529H169.037L164.267 56.9329C164.107 56.9529 163.787 56.9629 163.307 56.9629C162.507 56.9629 161.717 56.9329 160.937 56.8729V65.4529H158.387V45.5629C160.627 45.4829 162.367 45.4429 163.607 45.4429ZM163.547 47.6029C162.887 47.6029 162.017 47.6229 160.937 47.6629V54.7429C162.017 54.8429 162.917 54.8929 163.637 54.8929C166.517 54.8929 167.957 53.7229 167.957 51.3829V50.7829C167.957 49.7029 167.607 48.9029 166.907 48.3829C166.207 47.8629 165.087 47.6029 163.547 47.6029ZM193.585 45.8029L199.615 65.4529H196.855L195.565 60.8929H188.335L187.045 65.4529H184.435L190.435 45.8029H193.585ZM191.965 48.1429L188.965 58.6129H194.935L191.965 48.1429ZM223.262 65.4529L216.782 48.8629V65.4529H214.262V45.8029H218.342L224.702 62.3929V45.8029H227.222V65.4529H223.262ZM254.523 45.8029V47.8129L245.643 63.1429H254.523V65.4529H242.673V63.4429L251.553 48.1129H242.853V45.8029H254.523Z" fill="#929292"/>
<path d="M142.938 78.8029V81.1129H135.138V87.3229H142.338V89.6029H135.138V96.1429H142.938V98.4529H132.588V78.8029H142.938ZM168.149 98.4529L161.669 81.8629V98.4529H159.149V78.8029H163.229L169.589 95.3929V78.8029H172.109V98.4529H168.149ZM194.85 78.4429C195.59 78.4429 196.44 78.5129 197.4 78.6529C198.36 78.7729 199.24 78.9129 200.04 79.0729L199.98 81.3229C197.72 80.8829 196.01 80.6629 194.85 80.6629C193.47 80.6629 192.48 80.9429 191.88 81.5029C191.3 82.0429 191.01 82.9529 191.01 84.2329V92.9329C191.01 94.2129 191.3 95.1429 191.88 95.7229C192.48 96.2829 193.47 96.5629 194.85 96.5629C195.75 96.5629 196.92 96.4229 198.36 96.1429V89.5129H194.61V87.1129H200.91V97.7029C198.51 98.4429 196.49 98.8129 194.85 98.8129C192.55 98.8129 190.91 98.3229 189.93 97.3429C188.95 96.3629 188.46 94.8329 188.46 92.7529V84.5029C188.46 82.3829 188.96 80.8429 189.96 79.8829C190.96 78.9229 192.59 78.4429 194.85 78.4429ZM219.8 78.8029V98.4529H217.25V78.8029H219.8ZM245.311 98.4529L238.831 81.8629V98.4529H236.311V78.8029H240.391L246.751 95.3929V78.8029H249.271V98.4529H245.311ZM276.122 78.8029V81.1129H268.322V87.3229H275.522V89.6029H268.322V96.1429H276.122V98.4529H265.772V78.8029H276.122ZM302.683 78.8029V81.1129H294.883V87.3229H302.083V89.6029H294.883V96.1429H302.683V98.4529H292.333V78.8029H302.683ZM324.113 78.4429C326.473 78.4429 328.213 78.9029 329.333 79.8229C330.453 80.7429 331.013 82.0329 331.013 83.6929V84.4429C331.013 85.6029 330.693 86.6329 330.053 87.5329C329.413 88.4129 328.493 89.0329 327.293 89.3929L332.393 98.4529H329.543L324.773 89.9329C324.613 89.9529 324.293 89.9629 323.813 89.9629C323.013 89.9629 322.223 89.9329 321.443 89.8729V98.4529H318.893V78.5629C321.133 78.4829 322.873 78.4429 324.113 78.4429ZM324.053 80.6029C323.393 80.6029 322.523 80.6229 321.443 80.6629V87.7429C322.523 87.8429 323.423 87.8929 324.143 87.8929C327.023 87.8929 328.463 86.7229 328.463 84.3829V83.7829C328.463 82.7029 328.113 81.9029 327.413 81.3829C326.713 80.8629 325.593 80.6029 324.053 80.6029ZM349.644 78.8029V98.4529H347.094V78.8029H349.644ZM375.155 98.4529L368.675 81.8629V98.4529H366.155V78.8029H370.235L376.595 95.3929V78.8029H379.115V98.4529H375.155ZM401.856 78.4429C402.596 78.4429 403.446 78.5129 404.406 78.6529C405.366 78.7729 406.246 78.9129 407.046 79.0729L406.986 81.3229C404.726 80.8829 403.016 80.6629 401.856 80.6629C400.476 80.6629 399.486 80.9429 398.886 81.5029C398.306 82.0429 398.016 82.9529 398.016 84.2329V92.9329C398.016 94.2129 398.306 95.1429 398.886 95.7229C399.486 96.2829 400.476 96.5629 401.856 96.5629C402.756 96.5629 403.926 96.4229 405.366 96.1429V89.5129H401.616V87.1129H407.916V97.7029C405.516 98.4429 403.496 98.8129 401.856 98.8129C399.556 98.8129 397.916 98.3229 396.936 97.3429C395.956 96.3629 395.466 94.8329 395.466 92.7529V84.5029C395.466 82.3829 395.966 80.8429 396.966 79.8829C397.966 78.9229 399.596 78.4429 401.856 78.4429Z" fill="white"/>
<path d="M114 55.1588C114 79.0354 94.5244 98.3913 70.5 98.3913C46.4756 98.3913 27 79.0354 27 55.1588C27 31.2821 46.4756 11.9263 70.5 11.9263C94.5244 11.9263 114 31.2821 114 55.1588ZM31.35 55.1588C31.35 76.6478 48.8781 94.068 70.5 94.068C92.1219 94.068 109.65 76.6478 109.65 55.1588C109.65 33.6698 92.1219 16.2495 70.5 16.2495C48.8781 16.2495 31.35 33.6698 31.35 55.1588Z" fill="#929292"/>
<rect x="45" y="27.8279" width="5" height="54.6618" fill="#FBC400"/>
<rect width="4.98486" height="33.8971" transform="matrix(0.714101 -0.700043 0.714101 0.700043 44.8096 56.3081)" fill="#FBC400"/>
<path fill-rule="evenodd" clip-rule="evenodd" d="M67.5564 25.8413H72.5564V82.5157L71.4786 82.5304L67.5564 78.6855V25.8413Z" fill="#929292"/>
<path fill-rule="evenodd" clip-rule="evenodd" d="M31.469 58.1892H50.0236V53.22H31.3987C31.3156 54.8759 31.339 56.5357 31.469 58.1892Z" fill="#FBC400"/>
<path fill-rule="evenodd" clip-rule="evenodd" d="M109.531 58.1892C109.661 56.5359 109.685 54.876 109.601 53.22H69.9883V58.1892H109.531Z" fill="#929292"/>
<path fill-rule="evenodd" clip-rule="evenodd" d="M80.4923 13.1025L67.5562 25.784L71.1158 29.2736L85.9261 14.7549C84.1666 14.091 82.3525 13.5374 80.4923 13.1025Z" fill="#929292"/>
<path fill-rule="evenodd" clip-rule="evenodd" d="M85.8474 14.7253L46.1123 53.6782L49.672 57.1678L90.6771 16.8816C89.1205 16.0694 87.5082 15.3483 85.8474 14.7253Z" fill="#FBC400"/>
<defs>
<filter id="filter0_b_184_76" x="-4" y="-4" width="435.068" height="121.377" filterUnits="userSpaceOnUse" color-interpolation-filters="sRGB">
<feFlood flood-opacity="0" result="BackgroundImageFix"/>
<feGaussianBlur in="BackgroundImage" stdDeviation="2"/>
<feComposite in2="SourceAlpha" operator="in" result="effect1_backgroundBlur_184_76"/>
<feBlend mode="normal" in="SourceGraphic" in2="effect1_backgroundBlur_184_76" result="shape"/>
</filter>
</defs>
</svg>
